# xmcd
#
# Track frame offsets: 
#        150
#        19097
#        38027
#        57070
#
# Disc length: 1012 seconds
#
# Revision: 4
# Processed by: cddbd v1.5.2PL0 Copyright (c) Steve Scherf et al.
# Submitted via: ExactAudioCopy v0.99pb5
#
DISCID=2603f204
DTITLE=Zeebra - Perfect Queen
DYEAR=2004
DGENRE=Rap
TTITLE0=Perfect Queen (Produced by FIRSTKLAS)
TTITLE1=Perfect Queen (TV Track)
TTITLE2=The System (Produced by GP aka Green Peeace)
TTITLE3=Perfect Queen (TV Track)
EXTD=
EXTT0=
EXTT1=
EXTT2=
EXTT3=
PLAYORDER=
